<svg width="40" height="40" viewBox="0 0 40 40" fill="none" xmlns="http://www.w3.org/2000/svg">
<path d="M0.327667 0.456772V0C2.62133 0 11.4683 1.72861e-07 12.8445 1.72861e-07V0.456772C10.6164 0.456772 8.97806 0.717779 8.97806 3.84992C8.97806 14.8124 8.97806 25.3181 8.97806 36.6068C8.97806 39.0865 11.4028 39.5432 12.8445 39.5432V40C8.78146 40 1.11407 39.9347 0 39.9347V39.478C1.83493 39.478 4.19413 39.0865 4.19413 36.5416C4.19413 31.4519 4.19413 5.87276 4.19413 3.84992C4.19413 0.717779 1.83493 0.456772 0.327667 0.456772Z" fill="#101828"/>
<path d="M12.8445 0.456772V1.72861e-07H39C39 1.72861e-07 38.0825 5.41599 37.4927 8.80914L37.034 8.74388C37.3617 6.52529 38.017 0.587276 34.7403 0.587276C32.3811 0.587276 29.9564 0.391516 29.8909 3.91517C29.6943 14.2251 29.8909 26.1011 29.8909 37.2594C29.8909 39.4127 31.8569 39.478 33.4297 39.478V39.9347C31.8569 39.9347 22.8133 39.9347 21.2405 39.9347V39.478C22.8133 39.478 25.0414 39.4127 25.0414 37.2594C25.0414 37.2594 25.0414 24.3393 25.0414 3.91517C25.0414 0.391516 22.7687 0.477019 20.2061 0.456772C16.5654 0.428006 15.8372 0.485538 12.8445 0.456772Z" fill="#101828"/>
<path d="M18 39C18 39.5523 17.5523 40 17 40C16.4477 40 16 39.5523 16 39C16 38.4477 16.4477 38 17 38C17.5523 38 18 38.4477 18 39Z" fill="#101828"/>
<path d="M40 39C40 39.5523 39.5523 40 39 40C38.4477 40 38 39.5523 38 39C38 38.4477 38.4477 38 39 38C39.5523 38 40 38.4477 40 39Z" fill="#101828"/>
</svg>
